<mxfile host="app.diagrams.net" modified="2020-10-27T13:23:26.307Z" agent="5.0 (Macintosh; Intel Mac OS X 10_15_7) AppleWebKit/605.1.15 (KHTML, like Gecko) Version/14.0 Safari/605.1.15" etag="oMkWcK4phiIPPVFv9IHd" version="13.8.3" type="github">
  <diagram id="R2lEEEUBdFMjLlhIrx00" name="Page-1">
    <mxGraphModel dx="1423" dy="815" grid="1" gridSize="10" guides="1" tooltips="1" connect="1" arrows="1" fold="1" page="1" pageScale="1" pageWidth="1100" pageHeight="850" math="0" shadow="0" extFonts="Permanent Marker^https://fonts.googleapis.com/css?family=Permanent+Marker">
      <root>
        <mxCell id="0" />
        <mxCell id="1" parent="0" />
        <mxCell id="_LVb3RAOXTasycDd0mrJ-6" value="" style="shape=image;verticalLabelPosition=bottom;labelBackgroundColor=#ffffff;verticalAlign=top;aspect=fixed;imageAspect=0;image=data:image/png,iVBORw0KGgoAAAANSUhEUgAAAosAAAA8CAYAAAAOuvDzAAAAAXNSR0IArs4c6QAAAERlWElmTU0AKgAAAAgAAYdpAAQAAAABAAAAGgAAAAAAA6ABAAMAAAABAAEAAKACAAQAAAABAAACi6ADAAQAAAABAAAAPAAAAAAt5577AAAUbklEQVR4Ae2cCbRdVXnHGQ0zyiQCIQlzpEYEZQliqUWxjDIJKF2moF0URCqhLKJYjChWpLXYIsqqAk1FK0gKqGAEDCqTKUOZA4GQMIVBxkBACNjf/+V8ycfOuffd6b28PP7fWv/sffb+9j77/M4+b393n3uz3HI2EzABEzABEzABEzABEzABEzABEzABEzABEzABEzABEzABEzABEzABEzABEzABEzABEzABEzABEzABEzABEzABEzABEzABEzABEzABEzABEzABEzABEzABEzABEzABEzABEzABEzABEzABEzABEzABEzABEzABEzABEzABEzABEzABEzABEzABEzABEzABEzABEzABEzABEzABEzABEzABEzABEzABEzABEzABEzABEzABEzABEzABEzABEzABEzABEzABEzABEzABEzABEzABEzABEzABEzABEzABEzABEzCBpUBg+UE459acYy80Co1E89H96F50CXoB2YYmgRUZ1ifQCmgO+g2ymYAJmIAJmIAJmEBPCPwFvfwW/amJnqTuRDQC2YYegbUZUty/y4be8DwiEzABEzABEzCBZZGAditPQgtQBBqRahfx1ZrySylbCdmGFgEHi0Prfng0JmACJmACJjAsCChQjOBQ6Y3oILQukikofDc6H2W/yRzbhhYBB4tD6354NCZgAiZgAiawzBN4H1eQdw7P5LjZ9yInUp8Dxu2XeQLD6wIcLA6v++mrMQETMAETMIGlTuAKRhDB38Utjuby1OZHLbRZD5/NkX500YmtTKMtULP2Osco1CzQpbrWRlP6jtqa5oWrU71xc5e+2jX4dywag3QtvTJd6yYoj6HdYHEt2outfhgzFG1DBhU73HXj07i3RGLcjondpkg/5lq/nYYt+mpubIVWbdE/u3U6tpgPY+is2bOSz6V8p+2in07nt867ERodHXWQ9mL+DtQc6+By3MQETMAEhh4BBUivIQWLSrdFrdhf4qTdyOno1AYNtqF8CnoCRTCqX1X/LzoGaaEo7UMUzKik4OpjaCp6AamPZ5B+jb0Lkun1uM5/G3odyUfnOBetg0q7iAL1fw7SAnEBehzF+J4jfwaqCx4+SnmMbRz5yeglpLa3oAko2yc5UCD+EIr+larNNLQj6tRG0fBs9CKKvmeT/y7S4htljX7govv+X2gWCm4al+7nkagT25tGwefgBh0ogLqr8tP4s8W9+Q6FCgCU3oN0LRqj7vFpKILa95O/FD2L4nr1a/19USNTUP09pPuV2an9HPRV1O4Pt/Kc3Z72n0E3Ij0fMXZxbTYuqvsC/k7Htgftf41iPuq885Gu8yuo0QeUTtvR5XLdzG/9Dwu6//Fca7z6O3Eh0tz8D6S51Ov5OxhzjGHbTMAETGB4Efgsl6M/1NKdbV7aKk38T6DuFRR916Va3BTYZNufg/DVYhKBbJRF+iR12g2bkvyjLtLfU7c8ynYrB6pXYHBflQ//nN5AXRk0HJr8r0/5aPcTymTaZbkaRXmjVNf2N6hdU0DyOGrUrwKmqKtbbPej/g/JJ3xz+jPq10Ht2Hico4+jGzRcO/lMLXzi3iiwuin5RZ+RnkadArR5TXz2pK403b8cnER/ZarnoLz3ZV/5OM/Zq6go+4tjBbxiX2fdjO1AOmz0nMS5b8ZHQVi2Ttt1O7/XYhAKBGNsZfowdTE/9YyW1s38Heg5Vo7VxyZgAiYwLAicwVXEH2t9qu+F7U4nWhijXwUs49FeaBLKi/yvOM6WF95orwX4eKTA9gEU5XGOZyg7BR2Bzkn18jsAZYvFIvp4msoj0XboEHQ/ijrtbmTLwWL4aFFT4KnjCFAmVMcqU1A3EX0E7YZ0DTlIVduVUKumAH02ivMrMDwKia12xfLOknzKYFGvRV9B0f7X5A9DGp8C/CdQ1J1Hvh0bj3O0PbpBw1aCxehD7M5ChyPdiyhXGvf+l+T/Dp2I7kHhcxv5bOKWr+1Sjj+OPog0R36AFqBo/7fkW7W6OftTGut+74S+jaLf58lvg7J1M7bV6Gg+Uv+vIQXSH0Z7Ij3bc1Gc+yvkwzptp/YTUPTZ7vxenrZiH+31LByNNN5/RPlvg3zKYLHb+Vs+/72cYwzXZgImYALDk8AFXFb84c6LSadXq4XvsdTnpJqOtFg+knwOTj7lwvv9VKfsZigv6k9xvIkqkn2TfFzTqalc2bxYKNDT4pNtXQ5y0KFAIqwMFv+NihWrSl2T8iugWUjnV1A2DpW2BgUPoRijAtVW7e9xjHbafXtr0XBHjl9MPpcV9b9Idf9CXot3tpEcxPUrIFN/rdp4HGNsCgDqrNVg8Xkajy06OJfj6F+pAqNsmgeaD6pT4JR3Bw+vylX336jOPk9h9H9xnUODsnLOfrvG75jU921FfTdjU0AaY/7Pol8dKnCM+tnk43532q7b+X1sGs908uX81XP0RPK5j3y2budvfv57PcfyOJ03ARMwgWFF4GquJhaTT/XgynZN/d1FXgFUnX2awjjvdckhL7wPUJ4X/HBTkBRtteNYmgK0qD+/qMyLhXaj6uyTFEb7M5NDDhYV7K6S6iI7mox2u2aiH6FGdi4VcY5dGznVlF+Q2u1RU6+iM5JPDhbflcpnkH8LqrN9KYyxlfzq/KNsfGrXbbB4ZHSa0n1S/wooVk11kZ2SfLaMQtKJaDp6EolDnY2iMK57Wp1Dg7I8Z9W/PgyUpiDrbhT9r5ccuhnbQanPn5Cve95OoFwfMvZGGoes03ajadvN/P457YPBLuTrLAftOVjsxfzNz3+v51jdtbjMBEzABIYFgfzHW4tKt/YlOojFQK9cG5kWtWeRfJ9OTnnhPS+V52wec92CszHOMQYFD9lisdCu2Zq5IuU1tpeR+rg2lR9alak8B2HJpd+sdlK0aP8OxRh367fVYofY9XtscdESua0pib7zOA9J5d9aotXiAgXBr1a+Ny4u7jc3vmqjc3cbLI6uOdt7U/9X1tSrKL+uHtfApyzW/d4WTUDB7ZrSqclxnrOnN/E7KfX/kSZ+uaq/sWknXLuoMW7tWn4BvQfFLiLZJazTdkt0VBT0N78fxV9jnVG0y4f6EKDnU345WOzF/I3nX32PRqUN1Bwrz+NjEzABExhwAu18x62/wcxNDlowu7UdUgczU77MaoGbhbSovQ1tgLRblE0LS50tSIVzUj6yCnT6M133vAZOGttDaAukgEOLrhaXbM2uLfwUtGn3Tzsi6kvHb0elNVvUs+/qHKgfWd11L6xZ/L3Ost+803YczsdEg5o05lhuU+M2YEV1976/+67B9HfvtZu6D1JQoFeeW6HN0QjUC9N3SBvZ7FSxHfkr0rGynYztKdqdiY5VB5jmmvR19DjSLuAUdDnKbDptRzeLrN35vSEt31G1fmBRL0tmXqJoLtqoqMpzsRfz99Gifx32Yo7VdOsiEzABExh8ArGQ9+LMD6dO2g0Wd6KtdrjyH37thIRpQWpmeXdMC0kZLDYK5nKfeQGM8jJIivKc/iEf1ORVr8BsDaRAVgtvNgWTjWwdKs5F+6C6sWjXRAHpyqgdU1ATrxGfa9JQ35XU+NcvfMYUx62cfy3a6HuGzc5XdNv1ocYvNbO6+y7/Ot7Rz2FkvonKICTqtdOtnbFurNm8ynWbFSfpZmx6xTwbnYzy+PXBZHylu0n3Q/eisE7bdTq/c7A3PwbRIH2S8vI+9XL+an5JzayTOdasP9eZgAmYwKAS6GWweAUjn1SNfiypFts/VcfNEgVRV6LV0By0N7oD5QBRgUYz02IW9kxkUtrKOJJ7W9lV+/FWgChTAFEGiipXsFdneoX7M7RzqnyQ/C3oTnQTmoZORUehdkycxUT3aM1+GmoXsrR8byZTeVXp0OC4v4W9rpnGWGf9cVebgbjvCpR0zSvoBNgfke7J7Uj35TdIH160o9WNNbu+mFPq/550kl6M7V/p7yz0YbQH2h3l4Gwsx9PRaKQ5HdZuu27md97JU8DZzGIHMvv0cv4OxBzLY3XeBEzABJY6gV4GizdwNdrR00KmAONQ9GPUnx2AgwJFmRaQWPxm9pUs/GcMiQKjRjY6VWgnYTBtJCdTQFO3aGh3dJNqMDdXaavJX+EYgaIWN/FUUF3aNqkg78am4iWy2t0T363QqCVqFxesRzbuzeLShW3jeA4ZBU+9tMxyRIOONbalYZM4aQSKPyR/FHoBZfvzdNDqPUlN+rKblgXpON+zm1L5JPLdjk27xAqAf1GJpO9/DjiYdBLS/VgbKZj8KQprt10383s2J9Vunc6pXfJGz58+ZJa74hT1zX2lsoGYvwt79r8mYAImMEwIxMLSi8vRK9EfpI5OI9/fgr4xPvILU3stAjIFM2GHR6Ym1W5K7C7cRf7lGp+BLFKAq93QOjuEwrdUFXlRr/Mty3ZNBWeQrwsUFexvm/zaCUxiPNp52S31kbP754OUvzflDySvcdSZFnLtPs1Cl9U5NChTsBKmrxXU2QfrCge47G30P646x0ukn0ZloKjqd+ufytq5J9FG6UH5IOX1zB5WHeuZu6XKdzu2b9DP/UjPzweqPiPR/VP9WVFA+v4q32m7bub3a5z7/6rzjyT9WJUvk89RoECytIGev+X5fGwCJmACyzSBXgaLAvF19EhFRH/Er0c5mKmq+pJt+FevWSMYmEf+7L6ahf9MJXmsOt6FNBbIqqgv0QJ5aiq4MOUHM3sKJyt34N5K2clpENelfCvZCDLlu0VNA927yWiDVNdoFy65LMpesyi33HL/RL4cv9ielHxyVvd1ZlXwTtIv5soqr/F9C2kXagyai1q1uO/yPwLla1TZnyGNebBNQXEEHyPIa46XtiMFeU7KrxPbgUafqGl4JGV6dmS3owhWux2bArDNkO7bKajOchB/Y+XQabtu57f+1oSdTqZ8RvQ344RwKNLrOR7I+VuczocmYAImYAIlgT0p0O6EXiVKWkwUFH4W7Vel55G+isJH+d1RaZ+iIHy0i/LP6L1oNPo40o5H1P+O/OoobH8yUTcxCov04uQTQWt20Xcho48puYL8ralOPtrp0DVsivZB2r2ItteRjyCDbN8r5ag7TgU1piApfF4hPwFpQVwX6dr+B0V9pJ+hrFXTjtflKNpq/B9FGv++6D4UdUovQ9n24CDX/5jjDyAFHBrHNBT1CjIU4LVqer34KIr2vyevXTyNbxLKdfLRB4tscW80D+tsOwqj7+/VOVD23eQTu4lyfTCVa7d3L6R59x6ke/k0ir6VPoxaNd3X3HYBxyejsUhjOB29jsJHPLJ1MzbdHz2r0beejcOR5sPW6BSk8ahe83EtJOu03RG0jXN1Or9vSH08S/4sdBKajPLfF51H8zlbt/N3IOdYHqfzJmACJjBsCXyIK3sOxWLQLJ2H3183IKEA6+wW+lEwtmbRR154BzpYVFDS6BpnUrdZMbZDk/9xRV0cjiCjAK5RvypXEPbL5HMe+XZMC/4dqNE55qa6MljUebSDlgOMun5Uf6Cc27Rj8a/rL8qupX5W5TOYweIh/YxL47sZPZT8xpBvxfKcjetslH65psNux3Y8fTY6X5Rrritwz9ZJu17Mb3395CoUYyvT36a6O/OAq3w38/fWqm/xqLNuPpDU9ecyEzABExiWBDbkqr6Myl2g+IP+InX/jjZA/Zl2AWagvKuifuYhBZOxy0F2kWl3L871D4tK35i5KPms/8aqvqP1Uv2FRX1eLHai7p7kq/O+hDQ29VHaQRTE2D5XVqbjjcifj8rr1k7Mr5BeR2rRFUv19zRSgN2OaedIHHLQp/Ppu3BbogeR+r4U1dnOFCo4il2nuC6lU5HYdGoH0DAHXerzOfRDpNfm2nFUWRnI3lSVv0BaZ++iMMb5nToHyjQ3w2fbwucwjstxyVevz7UDvCL6Eor2nyffiuVg8WQaaKdsPop+lN6OxKWRdTs2fXDTB5x8TuU1n69H70N11km7XszvlRiMmF+CHkH6m3A1+iJaGcV16ANlnXU6fwd6jtWN1WUmYAImsFQItBtYdDLIFWj0djQSbYyeR/civZ7TH/J2bE2c9dpLgZ0WawVoWkyXhilYHIf+iFapBqDFb3v0FLoLKbDpha1LJ1sgBeCzkALnV1EvTfdIrzt1LdORAs92TO3UXsGnPiBonOLQCxNX7dSo39vQ62hpm4IU7RhujnQvFMQ9gboxBYtTqg6+QPoNpIBnB7QOug/p2enPejE2MX8n0jOn896NFqD+rJN2nczvNRiInv1mc0Fz+rFqwJeT7lnl65KBnL9153OZCZiACZjAm4CAgkUFuy+/Ca7Vlzg4BBQsxk7YxME55TJ7lksYuZ69O5A+iNbZ1ygMngq8bSZgAiZgAh0Q0K6fzQRMwASWNQJ6q6CvYOgrAl9F2k3NtjMHJ6aCqSnvrAmYgAmYQBsEHCy2AcuuJmACQ4bARYwkvooxnry+8qD/IeAcpK9AXIsigPw5+WnIZgImYAImYAKDSsCvoQcV95viZH4N3d5tPgJ3vYqOV811qQLItdvr1t4mYAImYAKZgH61aeuMwGo0m4GuQVd21oVbmcAbCGinXz8i0a+8NadmI1tjAvrF/veRfmSmX75rp1Gpfoyj187Ho9OQ6m0mYAImYAImYAImYAImYAImYAImYAImYAImYAImYAImYAImYAImYAImYAImYAImYAImYAImYAImYAImYAImYAImYAImYAImYAImYAImYAImYAImYAImYAImYAImYAImYAImYAImYAImYAImYAImYAImYAImYAImYAImYAImYAImYAImYAImYAImYAImYAImYAImYAImYAImYAImYAImYAImYAImYAImYAImYAImYAImYAImYAImYAImYAImYAImYAImYAImYAImYAImYAImYAImYAImYAImYAImYAImYAImYAImYAImYAImYAImYAImYAImYAImYAImYAImYAImYAImYAImYAImYAImYAImYAImYAImYAIm8CYl8P/3axAajrIduwAAAABJRU5ErkJggg==;" parent="1" vertex="1">
          <mxGeometry x="150" y="20" width="470" height="43.32" as="geometry" />
        </mxCell>
        <mxCell id="TAjwPoDr32oMmFauLRPC-11" style="edgeStyle=orthogonalEdgeStyle;rounded=0;orthogonalLoop=1;jettySize=auto;html=1;exitX=0.5;exitY=1;exitDx=0;exitDy=0;fontSize=19;" edge="1" parent="1" source="_LVb3RAOXTasycDd0mrJ-59" target="TAjwPoDr32oMmFauLRPC-5">
          <mxGeometry relative="1" as="geometry" />
        </mxCell>
        <mxCell id="_LVb3RAOXTasycDd0mrJ-59" value="Passageiro" style="rounded=1;arcSize=10;whiteSpace=wrap;html=1;align=center;fontSize=20;" parent="1" vertex="1">
          <mxGeometry x="160" y="170" width="170" height="70" as="geometry" />
        </mxCell>
        <mxCell id="_LVb3RAOXTasycDd0mrJ-60" value="Funcionário" style="rounded=1;arcSize=10;whiteSpace=wrap;html=1;align=center;fontSize=20;" parent="1" vertex="1">
          <mxGeometry x="830" y="555" width="160" height="65" as="geometry" />
        </mxCell>
        <mxCell id="_LVb3RAOXTasycDd0mrJ-61" value="Passagem" style="rounded=1;arcSize=10;whiteSpace=wrap;html=1;align=center;fontSize=20;" parent="1" vertex="1">
          <mxGeometry x="780" y="167.5" width="190" height="80" as="geometry" />
        </mxCell>
        <mxCell id="_LVb3RAOXTasycDd0mrJ-62" value="Avião" style="rounded=1;arcSize=10;whiteSpace=wrap;html=1;align=center;fontSize=20;" parent="1" vertex="1">
          <mxGeometry x="180" y="560" width="130" height="60" as="geometry" />
        </mxCell>
        <mxCell id="TAjwPoDr32oMmFauLRPC-1" value="DER - Diagrama Entidade-Relacionamento" style="text;html=1;strokeColor=none;fillColor=none;align=center;verticalAlign=middle;whiteSpace=wrap;rounded=0;fontSize=23;fontStyle=1" vertex="1" parent="1">
          <mxGeometry x="490" y="31.66" width="480" height="20" as="geometry" />
        </mxCell>
        <mxCell id="TAjwPoDr32oMmFauLRPC-2" value="Compra" style="rhombus;whiteSpace=wrap;html=1;fontSize=21;" vertex="1" parent="1">
          <mxGeometry x="470" y="162.5" width="160" height="85" as="geometry" />
        </mxCell>
        <mxCell id="TAjwPoDr32oMmFauLRPC-3" value="Vende" style="rhombus;whiteSpace=wrap;html=1;fontSize=21;" vertex="1" parent="1">
          <mxGeometry x="810" y="330" width="140" height="130" as="geometry" />
        </mxCell>
        <mxCell id="TAjwPoDr32oMmFauLRPC-4" value="Trabalham" style="rhombus;whiteSpace=wrap;html=1;fontSize=19;" vertex="1" parent="1">
          <mxGeometry x="520" y="545" width="150" height="90" as="geometry" />
        </mxCell>
        <mxCell id="TAjwPoDr32oMmFauLRPC-12" style="edgeStyle=orthogonalEdgeStyle;rounded=0;orthogonalLoop=1;jettySize=auto;html=1;exitX=0.5;exitY=1;exitDx=0;exitDy=0;fontSize=19;" edge="1" parent="1" source="TAjwPoDr32oMmFauLRPC-5" target="_LVb3RAOXTasycDd0mrJ-62">
          <mxGeometry relative="1" as="geometry" />
        </mxCell>
        <mxCell id="TAjwPoDr32oMmFauLRPC-5" value="Embarca" style="rhombus;whiteSpace=wrap;html=1;fontSize=21;" vertex="1" parent="1">
          <mxGeometry x="160" y="330" width="170" height="110" as="geometry" />
        </mxCell>
        <mxCell id="TAjwPoDr32oMmFauLRPC-7" value="" style="endArrow=none;html=1;fontSize=23;exitX=1;exitY=0.5;exitDx=0;exitDy=0;" edge="1" parent="1" source="_LVb3RAOXTasycDd0mrJ-59" target="TAjwPoDr32oMmFauLRPC-2">
          <mxGeometry width="50" height="50" relative="1" as="geometry">
            <mxPoint x="520" y="440" as="sourcePoint" />
            <mxPoint x="570" y="390" as="targetPoint" />
          </mxGeometry>
        </mxCell>
        <mxCell id="TAjwPoDr32oMmFauLRPC-8" value="" style="endArrow=none;html=1;fontSize=23;entryX=0;entryY=0.5;entryDx=0;entryDy=0;exitX=1;exitY=0.5;exitDx=0;exitDy=0;" edge="1" parent="1" source="TAjwPoDr32oMmFauLRPC-2" target="_LVb3RAOXTasycDd0mrJ-61">
          <mxGeometry width="50" height="50" relative="1" as="geometry">
            <mxPoint x="630" y="210" as="sourcePoint" />
            <mxPoint x="680" y="160" as="targetPoint" />
          </mxGeometry>
        </mxCell>
        <mxCell id="TAjwPoDr32oMmFauLRPC-15" value="" style="endArrow=none;html=1;fontSize=19;entryX=0;entryY=0.5;entryDx=0;entryDy=0;" edge="1" parent="1" target="TAjwPoDr32oMmFauLRPC-4">
          <mxGeometry width="50" height="50" relative="1" as="geometry">
            <mxPoint x="310" y="590" as="sourcePoint" />
            <mxPoint x="360" y="540" as="targetPoint" />
          </mxGeometry>
        </mxCell>
        <mxCell id="TAjwPoDr32oMmFauLRPC-16" value="" style="endArrow=none;html=1;fontSize=19;exitX=1;exitY=0.5;exitDx=0;exitDy=0;entryX=0;entryY=0.5;entryDx=0;entryDy=0;" edge="1" parent="1" source="TAjwPoDr32oMmFauLRPC-4" target="_LVb3RAOXTasycDd0mrJ-60">
          <mxGeometry width="50" height="50" relative="1" as="geometry">
            <mxPoint x="520" y="440" as="sourcePoint" />
            <mxPoint x="570" y="390" as="targetPoint" />
            <Array as="points" />
          </mxGeometry>
        </mxCell>
        <mxCell id="TAjwPoDr32oMmFauLRPC-17" value="" style="endArrow=none;html=1;fontSize=19;entryX=0.5;entryY=1;entryDx=0;entryDy=0;exitX=0.331;exitY=0;exitDx=0;exitDy=0;exitPerimeter=0;" edge="1" parent="1" source="_LVb3RAOXTasycDd0mrJ-60" target="TAjwPoDr32oMmFauLRPC-3">
          <mxGeometry width="50" height="50" relative="1" as="geometry">
            <mxPoint x="880" y="550" as="sourcePoint" />
            <mxPoint x="570" y="390" as="targetPoint" />
            <Array as="points" />
          </mxGeometry>
        </mxCell>
        <mxCell id="TAjwPoDr32oMmFauLRPC-18" value="" style="endArrow=none;html=1;fontSize=19;" edge="1" parent="1">
          <mxGeometry width="50" height="50" relative="1" as="geometry">
            <mxPoint x="880" y="320" as="sourcePoint" />
            <mxPoint x="880" y="250" as="targetPoint" />
          </mxGeometry>
        </mxCell>
        <mxCell id="TAjwPoDr32oMmFauLRPC-19" value="1,N" style="text;html=1;strokeColor=none;fillColor=none;align=center;verticalAlign=middle;whiteSpace=wrap;rounded=0;fontSize=20;" vertex="1" parent="1">
          <mxGeometry x="350" y="170" width="40" height="20" as="geometry" />
        </mxCell>
        <mxCell id="TAjwPoDr32oMmFauLRPC-20" value="1,N" style="text;html=1;strokeColor=none;fillColor=none;align=center;verticalAlign=middle;whiteSpace=wrap;rounded=0;fontSize=20;" vertex="1" parent="1">
          <mxGeometry x="730" y="180" width="40" height="20" as="geometry" />
        </mxCell>
        <mxCell id="TAjwPoDr32oMmFauLRPC-21" value="1,1" style="text;html=1;strokeColor=none;fillColor=none;align=center;verticalAlign=middle;whiteSpace=wrap;rounded=0;fontSize=20;" vertex="1" parent="1">
          <mxGeometry x="890" y="525" width="40" height="20" as="geometry" />
        </mxCell>
        <mxCell id="TAjwPoDr32oMmFauLRPC-22" value="1,N" style="text;html=1;strokeColor=none;fillColor=none;align=center;verticalAlign=middle;whiteSpace=wrap;rounded=0;fontSize=20;" vertex="1" parent="1">
          <mxGeometry x="880" y="250" width="40" height="20" as="geometry" />
        </mxCell>
        <mxCell id="TAjwPoDr32oMmFauLRPC-23" value="1,N" style="text;html=1;strokeColor=none;fillColor=none;align=center;verticalAlign=middle;whiteSpace=wrap;rounded=0;fontSize=20;" vertex="1" parent="1">
          <mxGeometry x="770" y="560" width="40" height="20" as="geometry" />
        </mxCell>
        <mxCell id="TAjwPoDr32oMmFauLRPC-24" value="1,1" style="text;html=1;strokeColor=none;fillColor=none;align=center;verticalAlign=middle;whiteSpace=wrap;rounded=0;fontSize=20;" vertex="1" parent="1">
          <mxGeometry x="320" y="570" width="40" height="20" as="geometry" />
        </mxCell>
      </root>
    </mxGraphModel>
  </diagram>
</mxfile>
